# xmcd
#
# Track frame offsets: 
#        150
#        22297
#        41689
#        64615
#        84612
#        103715
#        115640
#        133170
#        147437
#        162740
#        182777
#
# Disc length: 2661 seconds
#
# Revision: 0
# Processed by: cddbd v1.5.2PL0 Copyright (c) Steve Scherf et al.
# Submitted via: ExactAudioCopyFreeDBPlugin 1.0
#
DISCID=a20a630b
DTITLE=Vaughn Penn - The World's Alright
DYEAR=1997
DGENRE=Country
TTITLE0=Eye For An Eye
TTITLE1=What Livin' Was For
TTITLE2=The Attic
TTITLE3=Garden Promise
TTITLE4=The Blacksmith
TTITLE5=Out There Somewhere
TTITLE6=One Shade Of Green
TTITLE7=Bird In The hand
TTITLE8=Paper Heroes
TTITLE9=Peace Of Mind
TTITLE10=The World's Alright
EXTD=
EXTT0=
EXTT1=
EXTT2=
EXTT3=
EXTT4=
EXTT5=
EXTT6=
EXTT7=
EXTT8=
EXTT9=
EXTT10=
PLAYORDER=
